<svg width="17" height="16" viewBox="0 0 17 16" fill="none" xmlns="http://www.w3.org/2000/svg">
<path d="M8.5 0C4.08182 0 0.5 3.58182 0.5 8C0.5 12.4182 4.08182 16 8.5 16C12.9182 16 16.5 12.4182 16.5 8C16.5 3.58182 12.9182 0 8.5 0ZM12.9891 5.49091C12.1073 6.37455 11.5127 6.88909 9.85636 8.88727C8.9 10.04 7.99636 11.2782 7.98909 11.2873L7.59273 11.7818C7.50909 11.8927 7.34727 11.9055 7.24545 11.8109L4.06182 8.85273C3.73818 8.55273 3.72 8.04545 4.02 7.72182C4.32 7.39818 4.82727 7.38 5.15091 7.68L7.05818 9.45273C7.15818 9.54545 7.31454 9.53454 7.40182 9.42909C7.69636 9.06364 8.1 8.62 8.53636 8.18182C10.1764 6.52909 11.1836 5.64182 11.7218 5.24909C12.3764 4.77273 13.1273 4.36545 13.3091 4.59091C13.5909 4.94364 13.4182 5.06 12.9891 5.49091Z" fill="#E6514A"/>
</svg>
